# xmcd
#
# Track frame offsets:
# 150
# 21724
# 41556
# 61392
# 82165
# 103108
# 125223
# 140101
# 161483
# 186388
# 195226
# 216814
# 237252
# 257662
# 284964
#
# Disc length: 4065 seconds
#
#
# Revision: 0
# Processed by: cddbd v1.5.2PL0 Copyright (c) Steve Scherf et al.
# Submitted via: FreeRIP 2.96 
#
DISCID=f30fdf0f
DTITLE=Eschbach, Andreas - Der Letzte seiner Art CD2v5
DYEAR=2004
DGENRE=Hörbuch
TTITLE0=16 Der Letzte seiner Art
TTITLE1=17 Der Letzte seiner Art
TTITLE2=18 Der Letzte seiner Art
TTITLE3=19 Der Letzte seiner Art
TTITLE4=20 Der Letzte seiner Art
TTITLE5=21 Der Letzte seiner Art
TTITLE6=22 Der Letzte seiner Art
TTITLE7=23 Der Letzte seiner Art
TTITLE8=24 Der Letzte seiner Art
TTITLE9=25 Der Letzte seiner Art
TTITLE10=26 Der Letzte seiner Art
TTITLE11=27 Der Letzte seiner Art
TTITLE12=28 Der Letzte seiner Art
TTITLE13=29 Der Letzte seiner Art
TTITLE14=30 Der Letzte seiner Art
EXTD=gelesen von Martin May
EXTT0=
EXTT1=
EXTT2=
EXTT3=
EXTT4=
EXTT5=
EXTT6=
EXTT7=
EXTT8=
EXTT9=
EXTT10=
EXTT11=
EXTT12=
EXTT13=
EXTT14=
PLAYORDER=
